<svg xmlns="http://www.w3.org/2000/svg" class="pygal-chart" style="background-color:#f9f9f9;-webkit-user-select:none;-webkit-font-smoothing:antialiased;font-family:Consolas,&quot;Deja Vu Sans Mono&quot;,&quot;Bitstream Vera Sans Mono&quot;,&quot;Courier New&quot;,monospace" viewBox="0 0 800 600"><defs><style>#chart-799021b5-8547-4273-8db0-4168c8c4f64c .title{font-family:Consolas,&quot;Deja Vu Sans Mono&quot;,&quot;Bitstream Vera Sans Mono&quot;,&quot;Courier New&quot;,monospace;font-size:16px;fill:#000}#chart-799021b5-8547-4273-8db0-4168c8c4f64c .axis text{font-family:Consolas,&quot;Deja Vu Sans Mono&quot;,&quot;Bitstream Vera Sans Mono&quot;,&quot;Courier New&quot;,monospace;font-size:10px}#chart-799021b5-8547-4273-8db0-4168c8c4f64c circle,#chart-799021b5-8547-4273-8db0-4168c8c4f64c path{-webkit-transition:150ms;-moz-transition:150ms;transition:150ms}#chart-799021b5-8547-4273-8db0-4168c8c4f64c .axis .guides:hover text,#chart-799021b5-8547-4273-8db0-4168c8c4f64c .series text{fill:#000}#chart-799021b5-8547-4273-8db0-4168c8c4f64c .axis .line,#chart-799021b5-8547-4273-8db0-4168c8c4f64c .axis.y .guides:hover .guide.line{stroke:#000}#chart-799021b5-8547-4273-8db0-4168c8c4f64c .axis .guide.line{stroke:rgba(0,0,0,.54);stroke-dasharray:4,4;stroke:#000}#chart-799021b5-8547-4273-8db0-4168c8c4f64c .reactive{fill-opacity:.7;stroke-opacity:.8;stroke-width:1}#chart-799021b5-8547-4273-8db0-4168c8c4f64c .color-0,#chart-799021b5-8547-4273-8db0-4168c8c4f64c .color-1{stroke:#3f51b5;fill:#3f51b5}#chart-799021b5-8547-4273-8db0-4168c8c4f64c .axis.x text,#chart-799021b5-8547-4273-8db0-4168c8c4f64c .title{text-anchor:middle}#chart-799021b5-8547-4273-8db0-4168c8c4f64c .guide.line{fill:none}#chart-799021b5-8547-4273-8db0-4168c8c4f64c .axis.x:not(.web) text[transform]{text-anchor:start}#chart-799021b5-8547-4273-8db0-4168c8c4f64c .axis.x:not(.web) text[transform].backwards{text-anchor:end}#chart-799021b5-8547-4273-8db0-4168c8c4f64c .axis.y text{text-anchor:end}#chart-799021b5-8547-4273-8db0-4168c8c4f64c .axis.y text[transform].backwards{text-anchor:start}#chart-799021b5-8547-4273-8db0-4168c8c4f64c .vertical .axis.x .guide.line{opacity:0}#chart-799021b5-8547-4273-8db0-4168c8c4f64c .vertical .axis.always_show .guide.line{opacity:1!important}#chart-799021b5-8547-4273-8db0-4168c8c4f64c .axis .guides:hover text,#chart-799021b5-8547-4273-8db0-4168c8c4f64c .axis.x .guides:hover .guide.line,#chart-799021b5-8547-4273-8db0-4168c8c4f64c .axis.y .guides:hover .guide.line{opacity:1}#chart-799021b5-8547-4273-8db0-4168c8c4f64c .subtle-fill{fill-opacity:.2}#chart-799021b5-8547-4273-8db0-4168c8c4f64c text{stroke:none!important}.axis text{font-size:9px!important}</style></defs><g class="graph custombox-graph vertical" style="fill:rgba(0,0,0,.87)"><path d="M0 0h800v600H0z" class="background" style="fill:#f9f9f9"/><g class="plot"><path d="M0 0h706v420H0z" class="background" style="fill:#fff" transform="translate(74 46)"/><g class="axis y always_show"><path d="M74 466h706" class="line"/><g class="guides"><path d="M74 444.811h706" class="guide line"/><text x="-5" y="402.311" transform="translate(74 46)">72</text></g><g class="guides"><path d="M74 423.832h706" class="guide line"/><text x="-5" y="381.332" transform="translate(74 46)">80</text></g><g class="guides"><path d="M74 402.853h706" class="guide line"/><text x="-5" y="360.353" transform="translate(74 46)">88</text></g><g class="guides"><path d="M74 381.874h706" class="guide line"/><text x="-5" y="339.374" transform="translate(74 46)">96</text></g><g class="guides"><path d="M74 360.895h706" class="guide line"/><text x="-5" y="318.395" transform="translate(74 46)">104</text></g><g class="guides"><path d="M74 339.916h706" class="guide line"/><text x="-5" y="297.416" transform="translate(74 46)">112</text></g><g class="guides"><path d="M74 318.937h706" class="guide line"/><text x="-5" y="276.437" transform="translate(74 46)">120</text></g><g class="guides"><path d="M74 297.958h706" class="guide line"/><text x="-5" y="255.458" transform="translate(74 46)">128</text></g><g class="guides"><path d="M74 276.979h706" class="guide line"/><text x="-5" y="234.479" transform="translate(74 46)">136</text></g><g class="guides"><path d="M74 256h706" class="guide line"/><text x="-5" y="213.5" transform="translate(74 46)">144</text></g><g class="guides"><path d="M74 235.021h706" class="guide line"/><text x="-5" y="192.521" transform="translate(74 46)">152</text></g><g class="guides"><path d="M74 214.042h706" class="guide line"/><text x="-5" y="171.542" transform="translate(74 46)">160</text></g><g class="guides"><path d="M74 193.063h706" class="guide line"/><text x="-5" y="150.563" transform="translate(74 46)">168</text></g><g class="guides"><path d="M74 172.084h706" class="guide line"/><text x="-5" y="129.584" transform="translate(74 46)">176</text></g><g class="guides"><path d="M74 151.105h706" class="guide line"/><text x="-5" y="108.605" transform="translate(74 46)">184</text></g><g class="guides"><path d="M74 130.126h706" class="guide line"/><text x="-5" y="87.626" transform="translate(74 46)">192</text></g><g class="guides"><path d="M74 109.147h706" class="guide line"/><text x="-5" y="66.647" transform="translate(74 46)">200</text></g><g class="guides"><path d="M74 88.168h706" class="guide line"/><text x="-5" y="45.668" transform="translate(74 46)">208</text></g><g class="guides"><path d="M74 67.189h706" class="guide line"/><text x="-5" y="24.689" transform="translate(74 46)">216</text></g></g><g class="axis x"><path d="M74 46v420" class="line"/><g class="guides"><path d="M257.288 46v420" class="guide line"/><text x="183.288" y="435" class="backwards" transform="rotate(-90 243.288 421)">test_csd</text></g><g class="guides"><path d="M596.712 46v420" class="guide line"/><text x="522.712" y="435" class="backwards" transform="rotate(-90 582.712 421)">test_csd_orig</text></g></g><g class="series serie-0 color-0"><g class="boxes"><g class="box" transform="translate(74 46)"><path stroke-width="3" d="M108.615 409.563h149.347m-224.02-1.049h298.693m-224.02-34.091h149.347" class="reactive tooltip-trigger"/><path stroke-width="2" d="M183.288 409.563v-.787m0-34.353v20.717" class="reactive tooltip-trigger"/><path d="M33.942 395.14h298.692v13.636H33.942z" class="subtle-fill reactive tooltip-trigger"/><circle cx="183.288" cy="409.563" r="3" class="subtle-fill reactive tooltip-trigger"/><circle cx="183.288" cy="-112.552" r="3" class="subtle-fill reactive tooltip-trigger"/></g></g></g><g class="series serie-1 color-1"><g class="boxes"><g class="box" transform="translate(74 46)"><path stroke-width="3" d="M448.038 182.203h149.347m-224.02-11.276h298.693M448.038 8.077h149.347" class="reactive tooltip-trigger"/><path stroke-width="2" d="M522.712 182.203v-3.934m0-170.192v102.142" class="reactive tooltip-trigger"/><path d="M373.365 110.219h298.692v68.051H373.365z" class="subtle-fill reactive tooltip-trigger"/><circle cx="522.712" cy="182.203" r="3" class="subtle-fill reactive tooltip-trigger"/><circle cx="522.712" cy="-827.413" r="3" class="subtle-fill reactive tooltip-trigger"/></g></g></g></g><g class="titles"><text x="400" y="26" class="title plot_title">Speed in Microseconds (us)</text><text x="427" y="580" class="title">Whatever</text><text y="282" class="title" transform="rotate(-90 0 256)">Duration</text></g></g></svg>